<?xml version="1.0" encoding="UTF-8"?>
<svg width="32" height="32" viewBox="0 0 32 32" fill="none" xmlns="http://www.w3.org/2000/svg">
    <!-- Outer circle with gradient -->
    <circle cx="16" cy="16" r="16" fill="url(#gradient)"/>
    <!-- Inner circle -->
    <circle cx="16" cy="16" r="14" fill="white"/>
    <!-- Icon -->
    <path
        d="M12 8H10C8.89543 8 8 8.89543 8 10V22C8 23.1046 8.89543 24 10 24H22C23.1046 24 24 23.1046 24 22V10C24 8.89543 23.1046 8 22 8H20M12 8C12 9.10457 12.8954 10 14 10H18C19.1046 10 20 9.10457 20 8M12 8C12 6.89543 12.8954 6 14 6H18C19.1046 6 20 6.89543 20 8"
        stroke="#2563eb"
        stroke-width="2"
        stroke-linecap="round"
        stroke-linejoin="round"
    />
    <defs>
        <linearGradient id="gradient" x1="0" y1="0" x2="32" y2="32" gradientUnits="userSpaceOnUse">
            <stop offset="0%" stop-color="#2563eb"/>
            <stop offset="100%" stop-color="#60a5fa"/>
        </linearGradient>
    </defs>
</svg> 